<?xml version="1.0" encoding="utf-8"?>
<!-- Generator: Adobe Illustrator 26.5.0, SVG Export Plug-In . SVG Version: 6.00 Build 0)  -->
<svg version="1.1" id="Layer_1" xmlns="http://www.w3.org/2000/svg" xmlns:xlink="http://www.w3.org/1999/xlink" x="0px" y="0px"
	 viewBox="0 0 141.85 128.71" style="enable-background:new 0 0 141.85 128.71;" xml:space="preserve">
<style type="text/css">
	.st0{fill:#F7F6EE;}
</style>
<path class="st0" d="M128.88,71.52c1.95-3.06,2.85-6.75,2.85-9.67c0-4.02-1.43-7.86-4.14-11.14h-16.9c3.35,3,5.31,7.19,5.31,11.66
	c0,4.76-2.22,9.2-5.97,12.22c9,2.26,15.63,10.45,15.63,20.01c0,11.39-9.26,19.79-20.65,19.79H90.6V50.71H74.53v78.01l35.68-0.01
	c17.74,0,31.64-13.9,31.64-31.64C141.85,87.18,137.01,77.31,128.88,71.52z"/>
<g>
	<path class="st0" d="M54.35,20.81c1.95-3.06,2.85-6.75,2.85-9.67c0-4.02-1.43-7.86-4.14-11.14h-16.9c3.35,3,5.31,7.19,5.31,11.66
		c0,4.76-2.22,9.2-5.97,12.22c9,2.26,15.63,10.45,15.63,20.01c0,11.39-9.26,19.79-20.65,19.79H16.07V0H0v78.01L35.68,78
		c17.74,0,31.64-13.9,31.64-31.64C67.32,36.47,62.48,26.61,54.35,20.81z"/>
	<g>
		<path class="st0" d="M77.65,39.53v4.68h-3.12V31.47h3.12v4.68h12.26v3.38H77.65z"/>
		<path class="st0" d="M74.53,28.44v-3.38h6.08v-6.24h-6.08v-3.38h15.37v3.38h-6.17v6.24h6.17v3.38H74.53z"/>
		<path class="st0" d="M74.53,11.3V0h3.01v7.94h3.12V0h3.01v7.94h3.23V0h3.01v11.3H74.53z"/>
	</g>
</g>
</svg>
