<?xml version="1.0" encoding="utf-8"?>
<!-- Generator: Adobe Illustrator 26.5.0, SVG Export Plug-In . SVG Version: 6.00 Build 0)  -->
<svg version="1.1" id="Layer_1" xmlns="http://www.w3.org/2000/svg" xmlns:xlink="http://www.w3.org/1999/xlink" x="0px" y="0px"
	 viewBox="0 0 118.7 55.8" style="enable-background:new 0 0 118.7 55.8;" xml:space="preserve">
<style type="text/css">
	.st0{fill:#231F20;}
</style>
<g>
	<path class="st0" d="M109.4,14.9c1.4-2.2,2-4.8,2-6.9c0-2.9-1-5.6-3-8H96.4c2.4,2.1,3.8,5.1,3.8,8.3c0,3.4-1.6,6.6-4.3,8.7
		c6.4,1.6,11.2,7.5,11.2,14.3c0,8.1-6.6,14.2-14.8,14.2H82.1V0H70.6v55.8l25.5,0c12.7,0,22.6-9.9,22.6-22.6
		C118.7,26.1,115.3,19,109.4,14.9z"/>
	<g>
		<path class="st0" d="M38.9,14.9c1.4-2.2,2-4.8,2-6.9c0-2.9-1-5.6-3-8H25.8c2.4,2.1,3.8,5.1,3.8,8.3c0,3.4-1.6,6.6-4.3,8.7
			c6.4,1.6,11.2,7.5,11.2,14.3c0,8.1-6.6,14.2-14.8,14.2H11.5V0H0v55.8l25.5,0c12.7,0,22.6-9.9,22.6-22.6
			C48.1,26.1,44.7,19,38.9,14.9z"/>
		<g>
			<path class="st0" d="M55.5,28.3v3.3h-2.2v-9.1h2.2v3.3h8.8v2.4H55.5z"/>
			<path class="st0" d="M53.3,20.3v-2.4h4.3v-4.5h-4.3V11h11v2.4h-4.4v4.5h4.4v2.4H53.3z"/>
			<path class="st0" d="M53.3,8.1V0h2.2v5.7h2.2V0h2.2v5.7h2.3V0h2.2v8.1H53.3z"/>
		</g>
	</g>
</g>
</svg>
